<svg width="20" height="22" viewBox="0 0 20 22" fill="none" xmlns="http://www.w3.org/2000/svg">
<path d="M7.03833 9.55652H4.93766V11.6572H7.03833V9.55652ZM11.2397 9.55652H9.139V11.6572H11.2397V9.55652ZM15.441 9.55652H13.3403V11.6572H15.441V9.55652ZM17.5417 2.20418H16.4913V0.103516H14.3907V2.20418H5.988V0.103516H3.88733V2.20418H2.837C1.67113 2.20418 0.746831 3.14948 0.746831 4.30485L0.736328 19.0095C0.736328 20.1649 1.67113 21.1102 2.837 21.1102H17.5417C18.697 21.1102 19.6423 20.1649 19.6423 19.0095V4.30485C19.6423 3.14948 18.697 2.20418 17.5417 2.20418ZM17.5417 19.0095H2.837V7.45585H17.5417V19.0095Z" fill="#929292"/>
</svg>
