<svg width="20" height="22" viewBox="0 0 20 22" fill="none" xmlns="http://www.w3.org/2000/svg">
<path d="M19.3824 6.44434H16.1509C15.6334 5.54734 14.9204 4.77684 14.0579 4.19034L15.9324 2.31584L14.3109 0.694336L11.8154 3.18984C11.2864 3.06334 10.7459 2.99434 10.1824 2.99434C9.61892 2.99434 9.07842 3.06334 8.56092 3.18984L6.05392 0.694336L4.43242 2.31584L6.29542 4.19034C5.44442 4.77684 4.73142 5.54734 4.21392 6.44434H0.982422V8.74434H3.38592C3.32842 9.12384 3.28242 9.50334 3.28242 9.89434V11.0443H0.982422V13.3443H3.28242V14.4943C3.28242 14.8853 3.32842 15.2648 3.38592 15.6443H0.982422V17.9443H4.21392C5.40992 20.0028 7.62942 21.3943 10.1824 21.3943C12.7354 21.3943 14.9549 20.0028 16.1509 17.9443H19.3824V15.6443H16.9789C17.0364 15.2648 17.0824 14.8853 17.0824 14.4943V13.3443H19.3824V11.0443H17.0824V9.89434C17.0824 9.50334 17.0364 9.12384 16.9789 8.74434H19.3824V6.44434ZM12.4824 15.6443H7.88242V13.3443H12.4824V15.6443ZM12.4824 11.0443H7.88242V8.74434H12.4824V11.0443Z" fill="#929292"/>
</svg>
