<svg width="21" height="21" viewBox="0 0 21 21" fill="none" xmlns="http://www.w3.org/2000/svg">
<path d="M10.2002 0.400391C4.6802 0.400391 0.200195 4.88039 0.200195 10.4004C0.200195 15.9204 4.6802 20.4004 10.2002 20.4004H15.2002V18.4004H10.2002C5.8602 18.4004 2.2002 14.7404 2.2002 10.4004C2.2002 6.06039 5.8602 2.40039 10.2002 2.40039C14.5402 2.40039 18.2002 6.06039 18.2002 10.4004V11.8304C18.2002 12.6204 17.4902 13.4004 16.7002 13.4004C15.9102 13.4004 15.2002 12.6204 15.2002 11.8304V10.4004C15.2002 7.64039 12.9602 5.40039 10.2002 5.40039C7.4402 5.40039 5.2002 7.64039 5.2002 10.4004C5.2002 13.1604 7.4402 15.4004 10.2002 15.4004C11.5802 15.4004 12.8402 14.8404 13.7402 13.9304C14.3902 14.8204 15.5102 15.4004 16.7002 15.4004C18.6702 15.4004 20.2002 13.8004 20.2002 11.8304V10.4004C20.2002 4.88039 15.7202 0.400391 10.2002 0.400391ZM10.2002 13.4004C8.5402 13.4004 7.2002 12.0604 7.2002 10.4004C7.2002 8.74039 8.5402 7.40039 10.2002 7.40039C11.8602 7.40039 13.2002 8.74039 13.2002 10.4004C13.2002 12.0604 11.8602 13.4004 10.2002 13.4004Z" fill="#929292"/>
</svg>
