<svg width="22" height="22" viewBox="0 0 22 22" fill="none" xmlns="http://www.w3.org/2000/svg">
<path d="M10.8278 0.0556641C5.02995 0.0556641 0.334961 4.76116 0.334961 10.559C0.334961 16.3568 5.02995 21.0623 10.8278 21.0623C16.6361 21.0623 21.3416 16.3568 21.3416 10.559C21.3416 4.76116 16.6361 0.0556641 10.8278 0.0556641ZM18.1066 6.35767H15.0081C14.672 5.04475 14.1889 3.78435 13.5587 2.61848C15.4913 3.28019 17.0983 4.62462 18.1066 6.35767ZM10.8383 2.19834C11.7101 3.45874 12.3928 4.85569 12.8444 6.35767H8.83216C9.2838 4.85569 9.96652 3.45874 10.8383 2.19834ZM2.70871 12.6597C2.54066 11.9875 2.43563 11.2837 2.43563 10.559C2.43563 9.83427 2.54066 9.13055 2.70871 8.45833H6.25884C6.17482 9.15155 6.1118 9.84477 6.1118 10.559C6.1118 11.2732 6.17482 11.9664 6.25884 12.6597H2.70871ZM3.56999 14.7603H6.66847C7.00458 16.0733 7.48773 17.3337 8.11793 18.4995C6.18532 17.8378 4.57831 16.5039 3.56999 14.7603ZM6.66847 6.35767H3.56999C4.57831 4.61411 6.18532 3.28019 8.11793 2.61848C7.48773 3.78435 7.00458 5.04475 6.66847 6.35767ZM10.8383 18.9197C9.96652 17.6593 9.2838 16.2623 8.83216 14.7603H12.8444C12.3928 16.2623 11.7101 17.6593 10.8383 18.9197ZM13.2961 12.6597H8.38052C8.28599 11.9664 8.21246 11.2732 8.21246 10.559C8.21246 9.84477 8.28599 9.14105 8.38052 8.45833H13.2961C13.3906 9.14105 13.4641 9.84477 13.4641 10.559C13.4641 11.2732 13.3906 11.9664 13.2961 12.6597ZM13.5587 18.4995C14.1889 17.3337 14.672 16.0733 15.0081 14.7603H18.1066C17.0983 16.4934 15.4913 17.8378 13.5587 18.4995ZM15.4178 12.6597C15.5018 11.9664 15.5648 11.2732 15.5648 10.559C15.5648 9.84477 15.5018 9.15155 15.4178 8.45833H18.9679C19.1359 9.13055 19.241 9.83427 19.241 10.559C19.241 11.2837 19.1359 11.9875 18.9679 12.6597H15.4178Z" fill="#929292"/>
</svg>
