<svg width="79" height="33" viewBox="0 0 79 33" fill="none" xmlns="http://www.w3.org/2000/svg">
<path d="M16.5718 12.8545C17.8966 12.8545 19.1213 13.1044 20.2461 13.6043C21.3959 14.1042 22.3832 14.8041 23.2081 15.7039C24.0329 16.6037 24.6703 17.6785 25.1202 18.9283C25.5951 20.1531 25.8326 21.4903 25.8326 22.94C25.8326 24.3148 25.6201 25.602 25.1952 26.8018C24.7703 27.9766 24.1704 28.9889 23.3955 29.8387C22.6207 30.7135 21.6958 31.4009 20.621 31.9008C19.5463 32.4007 18.359 32.6507 17.0592 32.6507H2.51202V26.7268H15.3721C15.9969 26.7268 16.5968 26.6518 17.1717 26.5019C17.7466 26.3519 18.234 26.1269 18.6339 25.827C19.0588 25.502 19.3963 25.1021 19.6462 24.6272C19.8962 24.1523 20.0212 23.5899 20.0212 22.94C20.0212 21.7153 19.6212 20.7654 18.8214 20.0906C18.0215 19.4157 17.0217 19.0783 15.822 19.0783H12.0352C10.4355 19.0783 8.98578 18.9033 7.68603 18.5534C6.38628 18.2034 5.27399 17.6535 4.34917 16.9037C3.44934 16.1538 2.74947 15.1915 2.24957 14.0167C1.74966 12.817 1.49971 11.3922 1.49971 9.74256C1.49971 8.56779 1.69967 7.443 2.0996 6.36821C2.49952 5.26842 3.06191 4.3061 3.78677 3.48126C4.51164 2.65642 5.38647 1.99405 6.41127 1.49414C7.43608 0.994237 8.57336 0.744284 9.82312 0.744284H23.0206V6.96809H12.2602C11.6603 6.96809 11.0854 7.00559 10.5355 7.08057C10.0106 7.15556 9.54817 7.30553 9.14825 7.53048C8.74832 7.73045 8.43588 8.03039 8.21093 8.43031C7.98597 8.83024 7.87349 9.36763 7.87349 10.0425C7.87349 10.8424 8.13594 11.5172 8.66084 12.0671C9.18574 12.592 9.9106 12.8545 10.8354 12.8545H16.5718Z" fill="white"/>
<rect x="30.8765" y="0.989258" width="6.61638" height="31.9792" fill="white"/>
<rect x="46.3149" y="8.70801" width="6.61638" height="24.2601" fill="white"/>
<path d="M69.7942 17.6783C70.8072 17.6783 71.7438 17.8695 72.6039 18.2518C73.4832 18.634 74.2382 19.1692 74.8689 19.8573C75.4997 20.5454 75.9871 21.3673 76.3311 22.323C76.6943 23.2596 76.8759 24.2822 76.8759 25.3908C76.8759 26.4421 76.7134 27.4265 76.3885 28.3439C76.0635 29.2423 75.6048 30.0164 75.0123 30.6663C74.4197 31.3353 73.7125 31.8609 72.8906 32.2432C72.0687 32.6255 71.1608 32.8166 70.1669 32.8166H59.0425V28.2866H68.8767C69.3545 28.2866 69.8133 28.2293 70.2529 28.1146C70.6925 27.9999 71.0652 27.8279 71.3711 27.5985C71.696 27.35 71.954 27.0442 72.1452 26.681C72.3363 26.3179 72.4319 25.8878 72.4319 25.3908C72.4319 24.4543 72.1261 23.7279 71.5144 23.2118C70.9028 22.6958 70.1382 22.4377 69.2207 22.4377H66.325C65.1017 22.4377 63.9931 22.3039 62.9991 22.0363C62.0052 21.7687 61.1546 21.3482 60.4474 20.7748C59.7593 20.2014 59.2241 19.4655 58.8418 18.5671C58.4596 17.6497 58.2684 16.5602 58.2684 15.2987C58.2684 14.4003 58.4213 13.5402 58.7272 12.7183C59.033 11.8773 59.463 11.1414 60.0174 10.5106C60.5717 9.87984 61.2406 9.37332 62.0243 8.99104C62.808 8.60876 63.6777 8.41762 64.6334 8.41762H74.7256V13.177H66.497C66.0383 13.177 65.5986 13.2057 65.1781 13.263C64.7767 13.3204 64.4231 13.435 64.1173 13.6071C63.8115 13.76 63.5726 13.9893 63.4005 14.2952C63.2285 14.601 63.1425 15.0119 63.1425 15.528C63.1425 16.1397 63.3432 16.6557 63.7446 17.0763C64.146 17.4776 64.7003 17.6783 65.4075 17.6783H69.7942Z" fill="white"/>
</svg>
