<svg width="22" height="22" viewBox="0 0 22 22" fill="none" xmlns="http://www.w3.org/2000/svg">
<path d="M10.8383 0.0800781C5.04046 0.0800781 0.334961 4.78557 0.334961 10.5834C0.334961 16.3813 5.04046 21.0868 10.8383 21.0868C16.6361 21.0868 21.3416 16.3813 21.3416 10.5834C21.3416 4.78557 16.6361 0.0800781 10.8383 0.0800781ZM10.8383 3.23108C12.5819 3.23108 13.9893 4.63853 13.9893 6.38208C13.9893 8.12563 12.5819 9.53308 10.8383 9.53308C9.09474 9.53308 7.6873 8.12563 7.6873 6.38208C7.6873 4.63853 9.09474 3.23108 10.8383 3.23108ZM10.8383 18.1458C8.21246 18.1458 5.89123 16.8014 4.5363 14.7637C4.56781 12.6736 8.73763 11.5287 10.8383 11.5287C12.9285 11.5287 17.1088 12.6736 17.1403 14.7637C15.7854 16.8014 13.4641 18.1458 10.8383 18.1458Z" fill="#929292"/>
</svg>
