<svg width="17" height="22" viewBox="0 0 17 22" fill="none" xmlns="http://www.w3.org/2000/svg">
<path d="M14.872 7.78803H13.8656V5.77521C13.8656 2.99752 11.6112 0.743164 8.8335 0.743164C6.05581 0.743164 3.80146 2.99752 3.80146 5.77521V7.78803H2.79505C1.688 7.78803 0.782227 8.6938 0.782227 9.80085V19.8649C0.782227 20.972 1.688 21.8778 2.79505 21.8778H14.872C15.979 21.8778 16.8848 20.972 16.8848 19.8649V9.80085C16.8848 8.6938 15.979 7.78803 14.872 7.78803ZM8.8335 16.8457C7.72645 16.8457 6.82068 15.94 6.82068 14.8329C6.82068 13.7259 7.72645 12.8201 8.8335 12.8201C9.94055 12.8201 10.8463 13.7259 10.8463 14.8329C10.8463 15.94 9.94055 16.8457 8.8335 16.8457ZM11.9534 7.78803H5.71363V5.77521C5.71363 4.05425 7.11254 2.65534 8.8335 2.65534C10.5545 2.65534 11.9534 4.05425 11.9534 5.77521V7.78803Z" fill="#929292"/>
</svg>
