<svg width="17" height="22" viewBox="0 0 17 22" fill="none" xmlns="http://www.w3.org/2000/svg">
<path d="M14.5236 7.10165H13.517V5.08851C13.517 2.31038 11.2623 0.0556641 8.4842 0.0556641C5.70607 0.0556641 3.45135 2.31038 3.45135 5.08851V7.10165H2.44478C1.33755 7.10165 0.431641 8.00756 0.431641 9.11479V19.1805C0.431641 20.2877 1.33755 21.1936 2.44478 21.1936H14.5236C15.6308 21.1936 16.5368 20.2877 16.5368 19.1805V9.11479C16.5368 8.00756 15.6308 7.10165 14.5236 7.10165ZM8.4842 16.1608C7.37697 16.1608 6.47106 15.2549 6.47106 14.1476C6.47106 13.0404 7.37697 12.1345 8.4842 12.1345C9.59142 12.1345 10.4973 13.0404 10.4973 14.1476C10.4973 15.2549 9.59142 16.1608 8.4842 16.1608ZM11.6046 7.10165H5.36383V5.08851C5.36383 3.36728 6.76296 1.96815 8.4842 1.96815C10.2054 1.96815 11.6046 3.36728 11.6046 5.08851V7.10165Z" fill="#929292"/>
</svg>
