<svg width="23" height="26" viewBox="0 0 23 26" fill="none" xmlns="http://www.w3.org/2000/svg">
<path d="M20 3.3042H14.775C14.25 1.8542 12.875 0.804199 11.25 0.804199C9.625 0.804199 8.25 1.8542 7.725 3.3042H2.5C1.125 3.3042 0 4.4292 0 5.8042V23.3042C0 24.6792 1.125 25.8042 2.5 25.8042H20C21.375 25.8042 22.5 24.6792 22.5 23.3042V5.8042C22.5 4.4292 21.375 3.3042 20 3.3042ZM11.25 3.3042C11.9375 3.3042 12.5 3.8667 12.5 4.5542C12.5 5.2417 11.9375 5.8042 11.25 5.8042C10.5625 5.8042 10 5.2417 10 4.5542C10 3.8667 10.5625 3.3042 11.25 3.3042ZM11.25 8.3042C13.325 8.3042 15 9.9792 15 12.0542C15 14.1292 13.325 15.8042 11.25 15.8042C9.175 15.8042 7.5 14.1292 7.5 12.0542C7.5 9.9792 9.175 8.3042 11.25 8.3042ZM18.75 23.3042H3.75V21.5542C3.75 19.0542 8.75 17.6792 11.25 17.6792C13.75 17.6792 18.75 19.0542 18.75 21.5542V23.3042Z" fill="#929292"/>
</svg>
